<svg xmlns="http://www.w3.org/2000/svg" width="390" height="120" viewBox="0 0 390 120" fill="none"><defs>
<clipPath id="clip0_2650_1519">
<rect width="109.164" height="99.9715" fill="white" transform="translate(153 482)" />
</clipPath>
<clipPath id="clip1_2650_1519">
<rect width="76" height="92" fill="white" transform="translate(177 635)" />
</clipPath>
<clipPath id="clip2_2650_1519">
<rect width="107" height="106" fill="white" transform="translate(160 787)" />
</clipPath>
<clipPath id="clip3_2650_1519">
<rect width="104" height="102" fill="white" transform="translate(160 941)" />
</clipPath>
<clipPath id="clip4_2650_1519">
<rect width="111" height="101" fill="white" transform="translate(159.5 1397.5)" />
</clipPath>
<clipPath id="clip5_2650_1519">
<rect width="120" height="87" fill="white" transform="translate(155 1713)" />
</clipPath>
<clipPath id="clip6_2650_1519">
<rect width="120.237" height="96.19" fill="white" transform="translate(150.628 1699.34)" />
</clipPath>
<clipPath id="clip7_2650_1519">
<rect width="111" height="111" fill="white" transform="translate(159.5 24.5)" />
</clipPath>
<clipPath id="clip8_2650_1519">
<rect width="111" height="93" fill="white" transform="translate(159.5 337.5)" />
</clipPath>
</defs>
<g transform="translate(-20 -20)">
<g clip-path="url(#clip7_2650_1519)">
<mask id="mask8_2650_1519" style="mask-type:luminance" maskUnits="userSpaceOnUse" x="160" y="25" width="110" height="110">
<path d="M165.97 48.2048C165.97 48.2048 183.28 12.6593 238.906 31.2197C294.533 49.7801 258.233 119.429 258.233 119.429C258.233 119.429 243.174 145.969 205.7 127.769C168.225 109.569 149.907 85.1153 165.97 48.2048Z" fill="white" />
</mask>
<g mask="url(#mask8_2650_1519)">
<path d="M165.218 48.0881C165.218 48.0881 182.653 12.2851 238.682 30.98C294.712 49.6749 258.149 119.828 258.149 119.828C258.149 119.828 242.981 146.56 205.235 128.229C167.489 109.897 149.038 85.2617 165.218 48.0881Z" fill="#CCBADF" />
<path d="M184.261 49.0087L204.783 49.0147C208.504 49.0147 211.547 52.1679 211.545 56.019L211.542 66.3737C211.542 67.6787 211.19 68.9017 210.583 69.9487L213.541 72.1368C214.063 72.5222 213.799 73.375 213.157 73.375L184.252 73.3659C180.531 73.3659 177.488 70.2127 177.491 66.3616L177.494 56.0069C177.497 52.1557 180.54 49.0056 184.261 49.0087Z" fill="white" />
<path d="M294.522 106.57C297.514 107.65 299.746 110.553 300.213 114.103C300.991 119.976 301.396 126.005 301.396 132.147C301.396 194.585 259.799 245.202 208.481 245.202C175.377 245.202 146.314 224.136 129.857 192.417C120.804 174.972 199.459 161.344 200.344 155.08C228.019 142.447 232.355 93.4049 241.483 94.4183C260.341 96.5018 278.19 100.673 294.522 106.57Z" fill="#2E2E2E" />
<path d="M251.573 92.863C246.215 86.7351 245.503 71.7595 245.503 71.7595L230.229 71.307L230.656 97.9256C215.832 104.449 210.669 113.519 210.669 126.698L265.86 122.074C265.864 108.894 252.765 94.2253 251.573 92.863Z" fill="#B26E4B" />
<path d="M242.035 109.912C242.035 109.912 222.781 109.441 221.985 109.898C221.194 110.351 223.675 101.216 223.702 101.121C223.719 101.112 223.737 101.102 223.755 101.088L228.811 98.7786C229.34 98.524 230.1 98.1705 230.66 97.9207C230.66 101.72 229.931 104.444 234.266 103.978C241.079 103.242 247.233 93.98 249.82 90.2797C250.341 91.2413 250.923 92.118 251.572 92.8628C251.977 93.3248 252.946 95.3092 255.107 98.2412L242.035 109.912Z" fill="#F4F8FA" />
<path d="M166.275 130.837C176.906 129.338 187.623 125.228 197.2 119.736C203.692 116.012 209.695 110.596 215.631 105.812C219.046 103.059 224.107 100.424 230.656 97.9255C227.544 104.902 229.46 107.631 231.741 107.636C237.17 107.65 245.014 103.54 251.573 92.8629C256.202 98.0857 260.857 103.36 264.468 109.545C267.011 113.9 269.724 119.448 270.097 124.7C270.497 130.333 269.523 136.437 268.345 141.876C265.842 153.416 260.893 164.201 254.512 173.553C244.463 188.288 231.114 199.643 217.237 209.509C204.728 198.14 191.882 185.959 179.374 174.59C173.029 168.82 166.644 163.013 161.295 156.046C155.941 149.084 151.623 140.83 150.116 131.718C155.43 130.356 160.868 131.601 166.275 130.837Z" fill="#9870B1" />
<path d="M201.789 131.199L203.038 132.84L190.352 143.681L188.044 142.918L201.789 131.199Z" fill="black" />
<path d="M162.971 126.099L185.453 158.016L153.687 152.963L131.161 120.985C130.503 120.052 131.241 118.741 132.33 118.916L158.111 123.017C160.054 123.328 161.797 124.431 162.971 126.099Z" fill="white" />
<path d="M217.231 209.509C220.326 195.91 215.808 181.533 205.853 173.293C192.197 161.995 171.236 146.369 147.87 135.041C141.013 131.718 133.054 133.509 127.905 139.656C114.121 156.107 110.123 170.371 99.0913 191.394C95.1205 210.461 108.62 221.36 108.62 221.36L112.987 216.82C111.23 219.974 118.772 244.9 130.657 260.182C137.603 269.115 145.149 269.944 154.682 270.854C147.808 235.666 144.984 214.869 144.006 206.733C143.441 202.033 143.579 197.244 144.544 192.629C146.233 184.569 150.782 175.471 163.019 180.953C186.168 191.333 217.231 209.509 217.231 209.509Z" fill="#697079" />
<path d="M242.304 123.665L238.075 128.38L239.602 122.074L242.304 123.665Z" fill="#6A707A" />
<path d="M236.68 126.975L239.945 128.89C240.421 129.17 240.6 129.793 240.345 130.283L236.651 137.357C236.395 137.847 235.802 138.017 235.325 137.737L232.06 135.821C231.584 135.542 231.405 134.919 231.661 134.429L235.355 127.355C235.61 126.865 236.204 126.695 236.68 126.975Z" fill="white" />
<path d="M227.005 31.3318C221.893 35.9243 223.492 48.682 231.688 52.0688C239.884 55.4556 241.812 41.4695 241.812 41.4695L227.005 31.339L227.005 31.3318Z" fill="black" />
<path d="M244.174 42.0557C235.506 38.4802 229.694 42.5962 224.411 51.7749C223.676 52.8928 220.022 58.6004 220.168 60.1223C220.314 61.6442 221.794 63.0421 223.171 63.665C221.322 72.7987 219.614 78.3655 228.302 80.9166C235.704 83.0871 244.797 81.3489 249.772 67.3701C253.773 56.1224 253.479 45.9008 244.174 42.0557Z" fill="#B26E4B" />
<path d="M232.815 29.5488L233.645 29.6444C234.137 28.6683 235.027 27.9797 236.048 27.8307C237.317 27.6474 238.61 27.6785 239.883 27.9272C245.017 28.9478 250.372 31.7018 253.477 33.4974C255.134 34.4565 256.163 36.2981 256.176 38.3183L256.223 47.4891L261.095 50.3129C262.532 52.0187 262.508 54.6352 261.011 56.2887C254.845 63.1044 245.497 77.9439 245.497 77.9439L245.497 74.9954C246.02 72.764 247.387 69.2381 248.59 64.4543C249.465 60.9698 248.928 58.7081 246.907 57.2232C245.9 56.4812 245.338 55.2266 245.497 53.918C246.816 43.1835 233.587 35.235 226.127 41.2367C225.922 41.4069 222.702 36.3814 226.494 32.004C226.502 31.9902 226.517 31.977 226.531 31.9638C228.131 30.1375 230.486 29.2921 232.808 29.5554L232.815 29.5488Z" fill="black" />
<path d="M247.392 57.6071C247.423 57.6394 247.462 57.6651 247.494 57.6902C249.058 59.0938 249.899 61.2315 250.345 63.3673C250.754 65.3018 250.517 68.3365 250.461 70.3647C251.204 69.2375 251.999 68.0497 252.838 66.844C252.839 66.8295 252.84 66.8222 252.841 66.8077L253.079 65.1192L253.231 63.4954C253.278 62.9367 253.332 62.4664 253.376 61.7831C253.419 60.4706 253.164 59.1362 252.618 57.9417C251.87 56.3106 250.545 55.1424 249.172 54.1305C248.762 53.8271 248.344 53.5303 247.972 53.1721C246.87 52.1062 246.234 50.6102 245.599 49.173C245.433 48.7983 244.63 47.0959 243.793 46.0412C243.828 46.1032 243.857 46.1646 243.893 46.2266C243.994 46.4047 244.094 46.5827 244.188 46.7674C244.24 46.8749 244.292 46.9825 244.345 47.0827C244.432 47.2667 244.518 47.4508 244.598 47.6341C244.65 47.7489 244.695 47.863 244.739 47.9771C244.813 48.1598 244.878 48.3491 244.944 48.5384C244.981 48.6591 245.026 48.7805 245.063 48.9012C245.122 49.0898 245.174 49.2851 245.219 49.4724C245.249 49.5997 245.287 49.7204 245.31 49.847C245.355 50.0416 245.386 50.2421 245.417 50.4354C245.44 50.562 245.464 50.6887 245.48 50.8219C245.51 51.0297 245.526 51.2361 245.543 51.4426C245.553 51.5679 245.569 51.6939 245.572 51.8185C245.587 52.0467 245.582 52.273 245.582 52.5071C245.58 52.6166 245.584 52.7268 245.581 52.8363C245.573 53.1792 245.543 53.5275 245.5 53.8744C245.438 54.3658 245.479 54.8526 245.604 55.3037C245.812 56.0629 246.266 56.7364 246.895 57.2001C247.068 57.3267 247.227 57.4593 247.379 57.5985L247.392 57.6071Z" fill="#3B3F41" />
</g>
<path d="M174.186 96.5576L177.242 94.2033C176.616 93.0743 176.254 91.7581 176.254 90.3538V84.1885C176.254 80.0443 179.397 76.6519 183.242 76.6519H197.785C201.627 76.6519 204.773 80.0415 204.773 84.1885V90.3538C204.773 94.4979 201.63 97.8904 197.785 97.8904H174.581C173.92 97.8904 173.647 96.9734 174.186 96.5576Z" fill="#9870B1" />
</g>
</g></svg>